P2
# test
10 10
255
18 62 81 91 102 103 111 113 137 254 
65 78 116 153 157 173 179 192 241 253 
20 28 72 73 90 122 132 187 202 213 
34 39 54 80 176 217 224 232 238 242 
56 73 104 109 153 162 180 246 248 254 
19 20 38 53 89 110 131 158 179 239 
71 132 153 194 221 223 225 234 238 246 
21 59 81 137 142 164 179 212 213 245 
41 42 63 74 77 82 120 130 184 249 
2 46 68 96 112 119 187 223 235 246 
